<?xml version="1.0" encoding="utf-8"?>
<!-- Generator: Adobe Illustrator 19.0.0, SVG Export Plug-In . SVG Version: 6.00 Build 0)  -->
<svg version="1.1" id="Layer_1" xmlns="http://www.w3.org/2000/svg" xmlns:xlink="http://www.w3.org/1999/xlink" x="0px" y="0px"
	 viewBox="-336 137.9 286.1 286.1" style="enable-background:new -336 137.9 286.1 286.1;" xml:space="preserve">
<style type="text/css">
	.st0{fill:#E5C027;}
	.st1{fill:#333333;}
</style>
<g>
	<g>
		<path class="st0" d="M-193,138c-79,0-143,64-143,143s64,143,143,143s143-64,143-143C-49.9,202.2-114,138-193,138z M-193,397.2
			c-64.2,0-116.2-52-116.2-116.2s52-116.2,116.2-116.2s116.2,52,116.2,116.2S-128.8,397.2-193,397.2z"/>
	</g>
</g>
<g>
	<path class="st1" d="M-169.6,275.6c9-5.9,13.4-15.3,13.4-26c0-13.2-11.3-31.1-34.7-31.1c-18.1,0-35.5,14.3-35.5,27.5
		c0,6.3,3.9,12.6,10.6,12.6c11.1,0,9-16.6,24.4-16.6c7.3,0,11.7,4.9,11.7,11.4c0,18.9-23.2,6.8-23.2,24.6c0,20,27.7,2.5,27.7,26.3
		c0,9-6.9,15.8-15.3,15.8c-18.4,0-15.8-19.9-26.9-19.9c-5.9,0-12.6,4.8-12.6,11.4c0,13.4,15,31.9,39.1,31.9
		c23.2,0,41.1-17.2,41.1-37.5C-149.7,292.6-157.9,281.1-169.6,275.6z"/>
</g>
</svg>
