<?xml version="1.0" encoding="utf-8"?>
<!-- Generator: Adobe Illustrator 19.0.0, SVG Export Plug-In . SVG Version: 6.00 Build 0)  -->
<svg version="1.1" id="Layer_1" xmlns="http://www.w3.org/2000/svg" xmlns:xlink="http://www.w3.org/1999/xlink" x="0px" y="0px"
	 viewBox="-336 137.9 286.1 286.1" style="enable-background:new -336 137.9 286.1 286.1;" xml:space="preserve">
<style type="text/css">
	.st0{fill:#E5C027;}
</style>
<g>
	<path class="st0" d="M-193,137.9c-79,0-143,64-143,143s64,143,143,143s143-64,143-143C-49.9,202.1-114,137.9-193,137.9z
		 M-193,397.2c-64.2,0-116.2-52-116.2-116.2s52-116.2,116.2-116.2s116.2,52,116.2,116.2S-128.8,397.2-193,397.2z M-162.8,318.2h-32
		c15.7-18.5,40.9-39.8,40.9-63.7c0-21.9-16.6-35.9-39.2-35.9c-22.7,0-43.8,18-43.8,39.7c0,6.7,4.6,12.6,13.4,12.6
		c17.7,0,8.1-28.5,29.3-28.5c7.6,0,13.3,6.2,13.3,13.3c0,6.2-3.1,11.6-6.5,16c-14,19-30.6,34.5-45.9,51.6c-1.8,2.1-4.2,5.2-4.2,8.8
		c0,7.9,6.3,11.4,14.4,11.4h61.5c7,0,13.3-4.6,13.3-12.5C-148.4,323-154.7,318.2-162.8,318.2z"/>
</g>
</svg>
