<?xml version="1.0" encoding="utf-8"?>
<!-- Generator: Adobe Illustrator 19.0.0, SVG Export Plug-In . SVG Version: 6.00 Build 0)  -->
<svg version="1.1" id="Layer_1" xmlns="http://www.w3.org/2000/svg" xmlns:xlink="http://www.w3.org/1999/xlink" x="0px" y="0px"
	 viewBox="-336 137.9 286.1 286.1" style="enable-background:new -336 137.9 286.1 286.1;" xml:space="preserve">
<style type="text/css">
	.st0{fill:#E5C027;}
</style>
<g>
	<path class="st0" d="M-193,137.9c-79,0-143,64-143,143s64,143,143,143s143-64,143-143C-49.9,202.1-114,137.9-193,137.9z
		 M-193,397.2c-64.2,0-116.2-52-116.2-116.2s52-116.2,116.2-116.2s116.2,52,116.2,116.2S-128.8,397.2-193,397.2z"/>
	<path class="st0" d="M-186,218.4h-22.8c-6.9,0-10.9,7-10.9,13.2c0,5.9,3.2,13.2,10.9,13.2h7.3V330c0,8.7,6.3,13.6,13.2,13.6
		s13.2-4.9,13.2-13.6v-99.3C-175.2,223.8-179.1,218.4-186,218.4z"/>
</g>
</svg>
