<?xml version="1.0" encoding="utf-8"?>
<!-- Generator: Adobe Illustrator 19.0.0, SVG Export Plug-In . SVG Version: 6.00 Build 0)  -->
<svg version="1.1" id="Layer_1" xmlns="http://www.w3.org/2000/svg" xmlns:xlink="http://www.w3.org/1999/xlink" x="0px" y="0px"
	 viewBox="-336 137.9 286.1 286.1" style="enable-background:new -336 137.9 286.1 286.1;" xml:space="preserve">
<style type="text/css">
	.st0{fill:#333333;}
	.st1{fill:#E5C027;}
</style>
<g>
	<g>
		<path class="st0" d="M-160.9,293.2h-5v-52.6c0-15.6-8.4-21.9-18.9-21.9c-9.4,0-14.5,3.1-18.5,9.9l-40.7,69.6
			c-1.1,1.7-2.5,3.8-2.5,7.5c0,4.5,3.8,10.1,12.7,10.1h43.8v14.6c0,9.1,1.9,13.4,11.1,13.4s13.1-4.3,13.1-13.4v-14.6h5
			c7.1,0,12.7-4.5,12.7-11.3C-148.2,297.5-153.8,293.2-160.9,293.2z M-189.6,293.2h-24.9l24.5-47.8h0.4V293.2z"/>
		<path class="st1" d="M-193,138c-79,0-143,64-143,143s64,143,143,143s143-64,143-143C-49.9,202.2-114,138-193,138z M-193,397.2
			c-64.2,0-116.2-52-116.2-116.2s52-116.2,116.2-116.2s116.2,52,116.2,116.2S-128.8,397.2-193,397.2z"/>
	</g>
</g>
</svg>
